<?xml version="1.0" standalone="no"?>
<!DOCTYPE svg PUBLIC "-//W3C//DTD SVG 20010904//EN"
 "http://www.w3.org/TR/2001/REC-SVG-20010904/DTD/svg10.dtd">
<svg version="1.0" xmlns="http://www.w3.org/2000/svg"
 width="421.000000pt" height="421.000000pt" viewBox="0 0 421.000000 421.000000"
 preserveAspectRatio="xMidYMid meet">
<metadata>
Created by potrace 1.14, written by Peter Selinger 2001-2017
</metadata>
<g transform="translate(0.000000,421.000000) scale(0.100000,-0.100000)"
fill="#000000" stroke="none">
<path d="M50 4200 c0 -6 -11 -16 -25 -22 l-25 -11 0 -2063 0 -2063 29 -20 29
-21 2076 0 2076 0 0 1546 c0 1469 -1 1546 -17 1539 -42 -17 -53 -17 -53 0 0
13 -5 16 -22 10 -13 -3 -34 -9 -48 -12 -20 -4 -22 -2 -10 6 8 6 11 11 5 11
-42 2 -93 15 -112 27 -16 11 -23 12 -23 3 0 -7 -6 -6 -16 4 -8 9 -22 16 -30
16 -8 0 -14 6 -14 14 0 8 -4 18 -10 21 -6 4 -7 -1 -4 -12 5 -16 4 -16 -8 -2
-7 9 -23 19 -36 23 -12 4 -22 13 -22 21 0 7 -9 15 -21 18 -14 4 -18 10 -13 19
6 11 5 11 -8 0 -11 -9 -18 -10 -23 -2 -3 5 -15 10 -26 10 -10 0 -19 5 -19 10
0 6 -12 10 -27 10 -26 0 -26 1 -7 16 12 10 14 14 4 11 -8 -2 -21 2 -28 10 -8
7 -18 11 -23 8 -4 -3 -11 6 -15 21 -5 19 -9 22 -15 12 -6 -10 -9 -10 -9 0 0 6
-7 12 -15 12 -8 0 -15 8 -16 18 0 14 -2 14 -9 -3 -8 -19 -8 -19 -18 5 -9 20
-11 21 -11 6 -1 -11 32 -50 79 -95 88 -84 117 -126 198 -281 122 -234 166
-330 203 -439 l39 -114 -4 -191 c-3 -137 -9 -207 -20 -246 -9 -30 -19 -69 -22
-87 -4 -18 -15 -40 -25 -49 -11 -9 -19 -27 -19 -39 0 -11 -7 -30 -15 -41 -8
-10 -15 -26 -15 -35 0 -22 -43 -80 -119 -160 -35 -37 -69 -76 -75 -86 -18 -31
-46 -62 -156 -173 -117 -118 -152 -143 -225 -161 -27 -6 -79 -26 -115 -44 -74
-37 -248 -96 -330 -111 -48 -8 -74 -16 -93 -27 -17 -10 -115 -13 -422 -11
-402 1 -560 9 -582 26 -7 5 -17 7 -23 3 -6 -4 -17 -1 -25 5 -8 7 -22 9 -31 6
-9 -3 -31 3 -50 15 -19 11 -34 18 -34 14 0 -3 -21 5 -47 19 -27 13 -59 28 -73
31 -62 17 -150 68 -214 121 -38 33 -96 74 -129 91 -33 18 -63 36 -66 40 -3 5
-26 21 -51 38 -51 33 -100 80 -100 94 0 6 -6 14 -13 18 -16 10 -49 67 -64 108
-13 38 -1 261 16 278 6 6 11 18 11 27 0 8 9 31 19 51 41 76 70 196 81 331 5
73 14 156 19 183 6 28 17 102 27 165 25 175 85 398 128 474 20 35 36 70 36 78
0 13 76 97 116 129 10 8 41 34 67 57 27 23 53 39 59 36 6 -4 8 -2 5 3 -4 6 -1
14 6 17 25 12 86 53 143 96 32 24 68 46 79 47 11 2 31 15 45 31 37 40 72 60
189 110 178 75 248 92 406 99 136 6 142 5 230 -24 50 -17 117 -38 150 -48 33
-10 71 -22 85 -28 14 -5 30 -11 35 -12 30 -8 176 -70 212 -91 23 -13 51 -24
62 -24 25 0 153 -51 176 -70 15 -12 19 -12 31 5 19 26 1 44 -27 27 -19 -12
-20 -11 -16 25 4 41 -13 87 -37 96 -8 3 -25 4 -38 1 -18 -3 -19 -3 -5 4 17 7
17 9 -2 26 -12 11 -21 14 -21 8 0 -21 -27 -13 -44 13 -9 14 -25 25 -36 25 -12
0 -20 7 -20 17 0 9 -3 13 -6 10 -4 -4 -15 3 -25 14 -10 12 -23 18 -29 14 -6
-3 -10 -3 -9 2 1 4 1 15 0 23 -1 13 -2 13 -11 0 -9 -13 -12 -12 -25 4 -8 10
-17 24 -20 30 -3 8 -7 8 -11 -1 -3 -7 -13 -3 -29 13 -13 13 -33 24 -44 24 -11
0 -22 9 -26 20 -3 11 -11 20 -16 20 -5 0 -9 5 -9 11 0 11 -25 39 -35 39 -3 0
-4 -9 0 -19 3 -11 1 -22 -5 -26 -5 -3 -10 0 -11 7 0 7 -4 4 -9 -7 -8 -19 -9
-19 -9 2 -1 12 -9 28 -18 35 -10 7 -24 25 -32 41 -8 15 -19 27 -25 26 -31 -4
-45 3 -49 24 -4 19 -4 18 -6 -5 -1 -31 -26 -29 -36 3 -4 10 -12 19 -18 19 -6
0 -20 11 -32 24 -11 13 -30 27 -42 31 -18 5 -20 2 -16 -15 6 -21 -12 -28 -20
-7 -4 8 -6 8 -6 0 -1 -6 -10 -9 -21 -6 -21 6 -28 23 -9 23 8 0 8 4 0 14 -7 8
-21 12 -31 9 -11 -3 -20 -1 -20 4 0 12 -38 14 -45 2 -4 -5 -12 -6 -18 -2 -18
12 -59 11 -47 -1 6 -6 10 -13 10 -17 0 -12 -44 3 -53 18 -7 11 -192 13 -1067
13 -715 0 -1060 -3 -1060 -10z m2638 -226 c-10 -10 -28 6 -28 24 0 15 1 15 17
-1 9 -9 14 -19 11 -23z m522 -314 c0 -15 -5 -12 -26 11 -19 22 -19 22 4 10 12
-6 22 -16 22 -21z m-2528 -1795 c10 -23 6 -30 -68 -103 -192 -188 -390 -492
-438 -671 -21 -78 -73 -81 -68 -4 3 44 66 194 135 322 67 125 204 307 304 404
87 83 116 94 135 52z m242 -681 c9 -8 16 -26 16 -40 0 -19 -24 -40 -134 -113
-232 -156 -363 -275 -485 -445 -74 -102 -115 -187 -137 -281 -22 -96 -22 -95
-40 -102 -33 -12 -45 18 -34 82 44 246 234 515 520 736 111 86 249 179 266
179 7 0 20 -7 28 -16z m887 -345 c8 -15 8 -28 1 -43 -9 -19 -32 -27 -173 -55
-90 -18 -220 -51 -289 -73 -233 -75 -485 -188 -555 -250 -29 -25 -40 -29 -53
-21 -47 29 0 83 140 159 217 119 463 213 698 268 175 42 215 44 231 15z"/>
<path d="M2680 4041 c0 -10 22 -31 32 -31 17 0 7 28 -12 33 -11 3 -20 2 -20
-2z"/>
<path d="M2218 3813 c6 -2 18 -2 25 0 6 3 1 5 -13 5 -14 0 -19 -2 -12 -5z"/>
<path d="M3310 3515 c7 -8 17 -15 22 -15 5 0 3 7 -6 15 -8 8 -18 15 -22 15 -3
0 -1 -7 6 -15z"/>
<path d="M1596 3425 c4 -8 11 -15 16 -15 6 0 5 6 -2 15 -7 8 -14 15 -16 15 -2
0 -1 -7 2 -15z"/>
<path d="M3430 3433 c0 -5 12 -16 25 -26 24 -17 24 -17 18 0 -9 26 -44 46 -43
26z"/>
<path d="M2405 3400 c10 -11 20 -20 23 -20 3 0 -3 9 -13 20 -10 11 -20 20 -23
20 -3 0 3 -9 13 -20z"/>
<path d="M2470 3340 c0 -5 5 -10 11 -10 5 0 7 5 4 10 -3 6 -8 10 -11 10 -2 0
-4 -4 -4 -10z"/>
<path d="M2756 3325 c4 -8 11 -15 16 -15 6 0 5 6 -2 15 -7 8 -14 15 -16 15 -2
0 -1 -7 2 -15z"/>
<path d="M2100 3268 c0 -2 9 -11 20 -21 11 -9 20 -13 20 -7 0 5 -9 14 -20 20
-11 6 -20 9 -20 8z"/>
<path d="M2760 3246 c0 -9 5 -16 10 -16 6 0 10 4 10 9 0 6 -4 13 -10 16 -5 3
-10 -1 -10 -9z"/>
<path d="M2952 3236 c7 -8 15 -12 17 -11 5 6 -10 25 -20 25 -5 0 -4 -6 3 -14z"/>
<path d="M3540 3236 c0 -2 8 -10 18 -17 15 -13 16 -12 3 4 -13 16 -21 21 -21
13z"/>
<path d="M3026 3217 c3 -10 9 -15 12 -12 3 3 0 11 -7 18 -10 9 -11 8 -5 -6z"/>
<path d="M2730 3198 c0 -9 7 -19 16 -22 15 -6 15 -4 3 11 -7 10 -15 20 -16 22
-2 2 -3 -3 -3 -11z"/>
<path d="M2126 3185 c4 -8 11 -15 16 -15 6 0 5 6 -2 15 -7 8 -14 15 -16 15 -2
0 -1 -7 2 -15z"/>
<path d="M2251 3168 c9 -7 18 -20 22 -28 4 -12 6 -12 6 2 1 10 -9 22 -21 28
-20 9 -21 9 -7 -2z"/>
<path d="M2490 3151 c0 -6 4 -13 10 -16 6 -3 7 1 4 9 -7 18 -14 21 -14 7z"/>
<path d="M2780 3141 c0 -12 5 -21 10 -21 6 0 10 6 10 14 0 8 -4 18 -10 21 -5
3 -10 -3 -10 -14z"/>
<path d="M2135 3140 c3 -5 8 -10 11 -10 2 0 4 5 4 10 0 6 -5 10 -11 10 -5 0
-7 -4 -4 -10z"/>
<path d="M1970 3133 c0 -15 19 -37 26 -31 3 4 -1 14 -10 23 -9 9 -16 13 -16 8z"/>
<path d="M2075 3130 c3 -5 11 -10 16 -10 6 0 7 5 4 10 -3 6 -11 10 -16 10 -6
0 -7 -4 -4 -10z"/>
<path d="M2180 3120 c0 -5 5 -10 11 -10 5 0 7 5 4 10 -3 6 -8 10 -11 10 -2 0
-4 -4 -4 -10z"/>
<path d="M2230 3111 c0 -6 4 -13 10 -16 6 -3 7 1 4 9 -7 18 -14 21 -14 7z"/>
<path d="M3000 3111 c0 -5 5 -13 10 -16 6 -3 10 -2 10 4 0 5 -4 13 -10 16 -5
3 -10 2 -10 -4z"/>
<path d="M3610 3116 c0 -2 8 -10 18 -17 15 -13 16 -12 3 4 -13 16 -21 21 -21
13z"/>
<path d="M2740 3094 c-8 -11 -10 -16 -5 -11 4 4 18 -1 29 -10 13 -12 17 -13
10 -3 -6 8 -13 21 -16 29 -3 10 -7 9 -18 -5z"/>
<path d="M2130 3060 c0 -4 14 -13 30 -19 17 -5 30 -8 30 -6 0 2 -13 10 -30 19
-16 8 -30 11 -30 6z"/>
<path d="M2280 3035 c0 -8 4 -15 10 -15 5 0 7 7 4 15 -4 8 -8 15 -10 15 -2 0
-4 -7 -4 -15z"/>
<path d="M1980 3028 c0 -9 5 -20 10 -23 13 -8 13 5 0 25 -8 13 -10 13 -10 -2z"/>
<path d="M3140 3034 c0 -6 7 -19 16 -30 14 -18 14 -18 3 6 -14 31 -19 36 -19
24z"/>
<path d="M2096 3015 c4 -8 11 -15 16 -15 6 0 5 6 -2 15 -7 8 -14 15 -16 15 -2
0 -1 -7 2 -15z"/>
<path d="M2325 3020 c3 -5 8 -10 11 -10 2 0 4 5 4 10 0 6 -5 10 -11 10 -5 0
-7 -4 -4 -10z"/>
<path d="M2010 3012 c0 -12 19 -26 26 -19 2 2 -2 10 -11 17 -9 8 -15 8 -15 2z"/>
<path d="M2060 2966 c0 -2 8 -10 18 -17 15 -13 16 -12 3 4 -13 16 -21 21 -21
13z"/>
<path d="M1958 2933 c7 -3 16 -2 19 1 4 3 -2 6 -13 5 -11 0 -14 -3 -6 -6z"/>
<path d="M2377 2929 c7 -7 15 -10 18 -7 3 3 -2 9 -12 12 -14 6 -15 5 -6 -5z"/>
<path d="M1970 2916 c0 -2 7 -7 16 -10 8 -3 12 -2 9 4 -6 10 -25 14 -25 6z"/>
<path d="M2047 2909 c7 -7 15 -10 18 -7 3 3 -2 9 -12 12 -14 6 -15 5 -6 -5z"/>
<path d="M3190 2896 c0 -2 7 -7 16 -10 8 -3 12 -2 9 4 -6 10 -25 14 -25 6z"/>
<path d="M2090 2880 c0 -5 5 -10 11 -10 5 0 7 5 4 10 -3 6 -8 10 -11 10 -2 0
-4 -4 -4 -10z"/>
<path d="M1960 2863 c0 -5 9 -21 20 -38 24 -36 26 -26 5 15 -15 29 -25 38 -25
23z"/>
<path d="M2261 2866 c9 -8 89 -46 89 -42 0 8 -67 46 -80 46 -7 0 -11 -2 -9 -4z"/>
<path d="M1650 2850 c0 -5 5 -10 11 -10 5 0 7 5 4 10 -3 6 -8 10 -11 10 -2 0
-4 -4 -4 -10z"/>
<path d="M2031 2849 c-1 -8 6 -24 15 -35 15 -19 15 -19 6 1 -5 11 -12 27 -15
35 -5 13 -6 13 -6 -1z"/>
<path d="M2060 2835 c0 -8 4 -15 10 -15 5 0 7 7 4 15 -4 8 -8 15 -10 15 -2 0
-4 -7 -4 -15z"/>
<path d="M2146 2817 c3 -10 9 -15 12 -12 3 3 0 11 -7 18 -10 9 -11 8 -5 -6z"/>
<path d="M3332 2726 c7 -8 15 -12 17 -11 5 6 -10 25 -20 25 -5 0 -4 -6 3 -14z"/>
<path d="M3381 2722 c-1 -8 -6 -10 -13 -6 -10 5 -10 4 -1 -6 15 -16 28 -8 20
12 -4 11 -6 11 -6 0z"/>
<path d="M3300 2685 c0 -8 4 -15 10 -15 5 0 7 7 4 15 -4 8 -8 15 -10 15 -2 0
-4 -7 -4 -15z"/>
<path d="M3340 2673 c0 -13 5 -23 10 -23 13 0 13 11 0 30 -8 12 -10 11 -10 -7z"/>
<path d="M3360 2686 c0 -2 7 -7 16 -10 8 -3 12 -2 9 4 -6 10 -25 14 -25 6z"/>
<path d="M3351 2614 c0 -11 3 -14 6 -6 3 7 2 16 -1 19 -3 4 -6 -2 -5 -13z"/>
<path d="M3390 2595 c7 -9 15 -13 17 -11 7 7 -7 26 -19 26 -6 0 -6 -6 2 -15z"/>
<path d="M2950 2530 c0 -5 5 -10 11 -10 5 0 7 5 4 10 -3 6 -8 10 -11 10 -2 0
-4 -4 -4 -10z"/>
<path d="M1810 2379 c0 -5 5 -7 10 -4 6 3 10 8 10 11 0 2 -4 4 -10 4 -5 0 -10
-5 -10 -11z"/>
<path d="M1781 2354 c0 -11 3 -14 6 -6 3 7 2 16 -1 19 -3 4 -6 -2 -5 -13z"/>
<path d="M1905 2290 c3 -5 8 -10 11 -10 2 0 4 5 4 10 0 6 -5 10 -11 10 -5 0
-7 -4 -4 -10z"/>
<path d="M3275 2250 c3 -4 14 -10 25 -13 11 -3 18 -2 15 3 -3 4 -14 10 -25 13
-11 3 -18 2 -15 -3z"/>
<path d="M3470 2240 c0 -5 5 -10 11 -10 5 0 7 5 4 10 -3 6 -8 10 -11 10 -2 0
-4 -4 -4 -10z"/>
<path d="M2546 2187 c3 -10 9 -15 12 -12 3 3 0 11 -7 18 -10 9 -11 8 -5 -6z"/>
<path d="M2385 2160 c3 -5 8 -10 11 -10 2 0 4 5 4 10 0 6 -5 10 -11 10 -5 0
-7 -4 -4 -10z"/>
<path d="M1565 2090 c-3 -5 -1 -10 4 -10 6 0 11 5 11 10 0 6 -2 10 -4 10 -3 0
-8 -4 -11 -10z"/>
<path d="M2082 2074 c10 -10 20 -16 22 -13 3 3 -5 11 -17 18 -21 13 -21 12 -5
-5z"/>
<path d="M1810 2041 c0 -6 4 -13 10 -16 6 -3 7 1 4 9 -7 18 -14 21 -14 7z"/>
<path d="M3350 2032 c0 -5 12 -19 27 -33 l26 -24 -23 33 c-25 33 -30 38 -30
24z"/>
<path d="M3250 2026 c0 -2 7 -7 16 -10 8 -3 12 -2 9 4 -6 10 -25 14 -25 6z"/>
<path d="M2670 2005 c0 -7 30 -13 34 -7 3 4 -4 9 -15 9 -10 1 -19 0 -19 -2z"/>
<path d="M1835 1990 c3 -5 8 -10 11 -10 2 0 4 5 4 10 0 6 -5 10 -11 10 -5 0
-7 -4 -4 -10z"/>
<path d="M2135 1970 c3 -5 8 -10 11 -10 2 0 4 5 4 10 0 6 -5 10 -11 10 -5 0
-7 -4 -4 -10z"/>
<path d="M3090 1951 c0 -5 5 -13 10 -16 6 -3 10 -2 10 4 0 5 -4 13 -10 16 -5
3 -10 2 -10 -4z"/>
<path d="M3216 1947 c3 -10 9 -15 12 -12 3 3 0 11 -7 18 -10 9 -11 8 -5 -6z"/>
<path d="M1195 1940 c3 -5 11 -10 16 -10 6 0 7 5 4 10 -3 6 -11 10 -16 10 -6
0 -7 -4 -4 -10z"/>
<path d="M1880 1931 c0 -6 4 -13 10 -16 6 -3 7 1 4 9 -7 18 -14 21 -14 7z"/>
<path d="M3030 1929 c0 -5 5 -7 10 -4 6 3 10 8 10 11 0 2 -4 4 -10 4 -5 0 -10
-5 -10 -11z"/>
<path d="M1111 1915 c0 -14 28 -50 34 -43 3 3 -3 16 -14 29 -11 13 -20 20 -20
14z"/>
<path d="M3130 1914 c0 -6 7 -19 16 -30 14 -18 14 -18 3 6 -14 31 -19 36 -19
24z"/>
<path d="M2980 1900 c0 -5 5 -10 11 -10 5 0 7 5 4 10 -3 6 -8 10 -11 10 -2 0
-4 -4 -4 -10z"/>
<path d="M3260 1901 c0 -5 5 -13 10 -16 6 -3 10 -2 10 4 0 5 -4 13 -10 16 -5
3 -10 2 -10 -4z"/>
<path d="M3350 1880 c0 -5 12 -10 28 -9 24 0 25 1 7 9 -27 12 -35 12 -35 0z"/>
<path d="M1620 1876 c0 -2 8 -10 18 -17 15 -13 16 -12 3 4 -13 16 -21 21 -21
13z"/>
<path d="M3080 1871 c0 -5 7 -15 17 -22 15 -13 15 -12 4 9 -12 23 -21 28 -21
13z"/>
<path d="M960 1855 c0 -8 4 -15 10 -15 5 0 7 7 4 15 -4 8 -8 15 -10 15 -2 0
-4 -7 -4 -15z"/>
<path d="M3185 1860 c3 -5 8 -10 11 -10 2 0 4 5 4 10 0 6 -5 10 -11 10 -5 0
-7 -4 -4 -10z"/>
<path d="M1180 1855 c1 -12 39 -59 44 -54 2 2 -7 18 -20 34 -13 17 -24 26 -24
20z"/>
<path d="M910 1838 c0 -11 12 -10 30 2 12 7 10 9 -8 7 -12 0 -22 -5 -22 -9z"/>
<path d="M950 1815 c0 -5 5 -17 10 -25 5 -8 10 -10 10 -5 0 6 -5 17 -10 25 -5
8 -10 11 -10 5z"/>
<path d="M930 1791 c0 -6 4 -13 10 -16 6 -3 7 1 4 9 -7 18 -14 21 -14 7z"/>
<path d="M1030 1794 c0 -5 7 -18 15 -28 12 -16 15 -17 15 -4 0 8 -7 21 -15 28
-8 7 -15 9 -15 4z"/>
<path d="M1160 1791 c0 -5 7 -12 16 -15 14 -5 15 -4 4 9 -14 17 -20 19 -20 6z"/>
<path d="M1255 1760 c3 -5 8 -10 11 -10 2 0 4 5 4 10 0 6 -5 10 -11 10 -5 0
-7 -4 -4 -10z"/>
<path d="M1661 1767 c3 -4 23 -14 45 -23 26 -10 35 -12 27 -3 -7 7 -18 14 -25
15 -7 1 -22 5 -33 10 -11 4 -18 4 -14 1z"/>
<path d="M2175 1760 c3 -5 11 -10 16 -10 6 0 7 5 4 10 -3 6 -11 10 -16 10 -6
0 -7 -4 -4 -10z"/>
<path d="M1080 1750 c0 -5 5 -10 11 -10 5 0 7 5 4 10 -3 6 -8 10 -11 10 -2 0
-4 -4 -4 -10z"/>
<path d="M1151 1734 c0 -11 3 -14 6 -6 3 7 2 16 -1 19 -3 4 -6 -2 -5 -13z"/>
<path d="M1230 1741 c0 -6 4 -13 10 -16 6 -3 7 1 4 9 -7 18 -14 21 -14 7z"/>
<path d="M1012 1726 c7 -8 15 -12 17 -11 5 6 -10 25 -20 25 -5 0 -4 -6 3 -14z"/>
<path d="M1070 1690 c6 -11 13 -20 16 -20 2 0 0 9 -6 20 -6 11 -13 20 -16 20
-2 0 0 -9 6 -20z"/>
<path d="M993 1685 c0 -8 4 -15 9 -15 4 0 8 4 8 9 0 6 -4 12 -8 15 -5 3 -9 -1
-9 -9z"/>
<path d="M1165 1690 c3 -5 11 -10 16 -10 6 0 7 5 4 10 -3 6 -11 10 -16 10 -6
0 -7 -4 -4 -10z"/>
<path d="M1955 1690 c3 -5 11 -10 16 -10 6 0 7 5 4 10 -3 6 -11 10 -16 10 -6
0 -7 -4 -4 -10z"/>
<path d="M925 1660 c3 -5 8 -10 11 -10 2 0 4 5 4 10 0 6 -5 10 -11 10 -5 0 -7
-4 -4 -10z"/>
<path d="M1000 1646 c0 -2 7 -7 16 -10 8 -3 12 -2 9 4 -6 10 -25 14 -25 6z"/>
<path d="M1570 1620 c0 -5 5 -10 11 -10 5 0 7 5 4 10 -3 6 -8 10 -11 10 -2 0
-4 -4 -4 -10z"/>
<path d="M1296 1605 c-3 -8 -1 -15 4 -15 6 0 10 7 10 15 0 8 -2 15 -4 15 -2 0
-6 -7 -10 -15z"/>
<path d="M980 1591 c0 -6 4 -13 10 -16 6 -3 7 1 4 9 -7 18 -14 21 -14 7z"/>
<path d="M1630 1590 c8 -5 20 -10 25 -10 6 0 3 5 -5 10 -8 5 -19 10 -25 10 -5
0 -3 -5 5 -10z"/>
<path d="M3099 1577 c5 -5 24 -7 42 -5 33 3 33 4 -8 8 -23 3 -39 2 -34 -3z"/>
<path d="M1424 1515 c11 -8 24 -15 30 -15 5 0 1 7 -10 15 -10 8 -23 14 -29 14
-5 0 -1 -6 9 -14z"/>
<path d="M1055 1485 c11 -8 25 -22 31 -31 9 -11 13 -12 17 -2 2 8 -11 20 -32
31 -26 13 -31 13 -16 2z"/>
<path d="M1120 1495 c0 -2 14 -11 30 -20 17 -9 30 -12 30 -7 0 5 -11 14 -25
20 -28 13 -35 14 -35 7z"/>
<path d="M1540 1452 c0 -11 49 -31 54 -23 3 4 -8 12 -25 18 -16 6 -29 8 -29 5z"/>
<path d="M1248 1425 c13 -9 26 -14 29 -11 8 8 3 12 -27 21 l-25 7 23 -17z"/>
<path d="M1155 1400 c3 -5 8 -10 11 -10 2 0 4 5 4 10 0 6 -5 10 -11 10 -5 0
-7 -4 -4 -10z"/>
<path d="M1545 1400 c-3 -5 -1 -10 4 -10 6 0 11 5 11 10 0 6 -2 10 -4 10 -3 0
-8 -4 -11 -10z"/>
<path d="M3340 1356 c0 -2 9 -6 20 -9 11 -3 20 -1 20 4 0 5 -9 9 -20 9 -11 0
-20 -2 -20 -4z"/>
<path d="M3425 1310 c3 -5 8 -10 11 -10 2 0 4 5 4 10 0 6 -5 10 -11 10 -5 0
-7 -4 -4 -10z"/>
<path d="M1580 1270 c8 -5 20 -10 25 -10 6 0 3 5 -5 10 -8 5 -19 10 -25 10 -5
0 -3 -5 5 -10z"/>
<path d="M1645 1240 c3 -5 8 -10 11 -10 2 0 4 5 4 10 0 6 -5 10 -11 10 -5 0
-7 -4 -4 -10z"/>
<path d="M1780 1200 c0 -12 28 -21 35 -11 2 5 -4 11 -15 14 -11 3 -20 2 -20
-3z"/>
<path d="M1835 1180 c3 -5 8 -10 11 -10 2 0 4 5 4 10 0 6 -5 10 -11 10 -5 0
-7 -4 -4 -10z"/>
<path d="M1888 1183 c12 -2 30 -2 40 0 9 3 -1 5 -23 4 -22 0 -30 -2 -17 -4z"/>
<path d="M1960 1172 c0 -4 21 -6 48 -4 82 5 89 9 20 11 -38 0 -68 -2 -68 -7z"/>
</g>
</svg>
